<svg xmlns="http://www.w3.org/2000/svg" viewBox="0 0 108 108">
  <rect x="10.5" y="10.5" width="87" height="87" rx="19.5" fill="#FDFDFD"></rect>
  <g>
    <path fill="#1E2024" d="M25.02,54 A28.98,28.98 0 0 1 54,25.02 L54,40.89 A13.11,13.11 0 0 0 40.89,54 Z"></path>
    <path fill="#474B53" d="M54,25.02 L73.32,25.02 A9.66,9.66 0 0 1 82.98,34.68 L82.98,54 L67.11,54 A13.11,13.11 0 0 0 54,40.89 Z"></path>
    <path fill="#606672" d="M82.98,54 A28.98,28.98 0 0 1 54,82.98 L54,67.11 A13.11,13.11 0 0 0 67.11,54 Z"></path>
    <path fill="#282B31" d="M54,82.98 A28.98,28.98 0 0 1 25.02,54 L40.89,54 A13.11,13.11 0 0 0 54,67.11 Z"></path>
  </g>
</svg>