<svg xmlns="http://www.w3.org/2000/svg" viewBox="0 0 108 108" role="img" aria-label="VaultAI">
  <defs>
    <linearGradient id="favAccent" x1="54" y1="22" x2="86" y2="54" gradientUnits="userSpaceOnUse">
      <stop offset="0" stop-color="#45E0AC"/>
      <stop offset="1" stop-color="#00D4C8"/>
    </linearGradient>
  </defs>

  <!-- light app-icon tile -->
  <rect x="3" y="3" width="102" height="102" rx="24" fill="#FDFDFD"/>

  <!-- donut mark scaled up to fill the frame for legibility at 16-32px -->
  <g transform="translate(54 54) scale(1.18) translate(-54 -54)">
    <!-- two graphite tones -->
    <path fill="#1E2024" d="M25.02,54 A28.98,28.98 0 0 1 54,25.02 L54,40.89 A13.11,13.11 0 0 0 40.89,54 Z"/>
    <path fill="#474B53" d="M82.98,54 A28.98,28.98 0 0 1 54,82.98 L54,67.11 A13.11,13.11 0 0 0 67.11,54 Z"/>
    <path fill="#282B31" d="M54,82.98 A28.98,28.98 0 0 1 25.02,54 L40.89,54 A13.11,13.11 0 0 0 54,67.11 Z"/>
    <!-- mint -> teal accent quadrant, top-right -->
    <path fill="url(#favAccent)" d="M54,25.02 L73.32,25.02 A9.66,9.66 0 0 1 82.98,34.68 L82.98,54 L67.11,54 A13.11,13.11 0 0 0 54,40.89 Z"/>
    <!-- white center hole -->
    <circle cx="54" cy="54" r="13.11" fill="#FDFDFD"/>
  </g>
</svg>
